<?xml version="1.0" standalone="no"?>
<!DOCTYPE svg PUBLIC "-//W3C//DTD SVG 20010904//EN"
 "http://www.w3.org/TR/2001/REC-SVG-20010904/DTD/svg10.dtd">
<svg version="1.0" xmlns="http://www.w3.org/2000/svg"
 width="500.000000pt" height="500.000000pt" viewBox="0 0 500.000000 500.000000"
 preserveAspectRatio="xMidYMid meet">
<metadata>
Created by potrace 1.14, written by Peter Selinger 2001-2017
</metadata>
<g transform="translate(0.000000,500.000000) scale(0.100000,-0.100000)"
fill="#000000" stroke="none">
<path d="M0 2500 l0 -2500 2500 0 2500 0 0 2500 0 2500 -2500 0 -2500 0 0
-2500z m2515 1720 c227 -10 305 -19 345 -40 12 -6 20 -28 25 -67 7 -58 67
-280 105 -388 11 -33 37 -136 56 -228 71 -339 137 -531 280 -817 74 -146 121
-256 164 -385 73 -211 182 -493 270 -690 34 -77 71 -169 82 -205 11 -36 46
-122 78 -191 68 -147 123 -297 114 -311 -24 -39 -244 -63 -509 -56 -188 6
-235 18 -261 66 -8 15 -65 115 -126 222 -61 107 -131 237 -156 287 l-45 93
-47 0 c-27 0 -160 9 -297 21 -288 25 -418 22 -506 -11 -93 -35 -119 -70 -173
-232 -51 -155 -135 -329 -213 -441 -69 -100 -71 -100 -178 -77 -105 23 -266
40 -371 40 -64 0 -79 3 -99 22 -13 12 -23 32 -23 45 0 42 38 133 110 265 60
107 77 151 106 261 43 161 96 325 226 697 60 172 111 337 128 416 15 71 45
173 65 225 139 362 488 1376 501 1457 l7 43 51 -6 c28 -3 159 -10 291 -15z"/>
<path d="M2247 4139 c-6 -22 -33 -99 -58 -162 -12 -31 -19 -60 -16 -64 10 -10
57 26 139 105 42 41 81 71 87 67 6 -3 16 -3 23 1 14 9 -80 52 -133 60 -28 5
-40 3 -42 -7z"/>
<path d="M2380 4003 c-63 -65 -148 -149 -188 -187 -40 -38 -70 -71 -67 -74 3
-3 96 55 208 130 233 156 320 208 347 208 35 0 10 -29 -62 -71 -38 -22 -67
-43 -65 -46 3 -2 37 12 76 31 39 20 73 36 76 36 3 0 5 -9 5 -20 0 -12 -15 -29
-39 -44 -22 -14 -131 -111 -242 -217 -199 -188 -268 -243 -340 -273 -36 -15
-37 -15 -31 6 4 16 2 19 -9 12 -8 -5 -22 -7 -31 -6 -12 2 -19 -6 -24 -25 -4
-15 -12 -35 -19 -43 -23 -27 -35 -84 -44 -210 -5 -69 -13 -133 -16 -142 -10
-24 0 -23 38 6 18 13 51 29 74 35 35 10 53 24 99 82 48 59 122 119 147 119 4
0 7 -9 7 -19 0 -21 -52 -81 -70 -81 -6 0 -8 -4 -5 -10 11 -17 49 -11 87 15 20
14 42 25 47 25 27 0 5 -23 -66 -66 -43 -26 -96 -59 -118 -74 -22 -15 -84 -49
-138 -75 -137 -67 -171 -113 -251 -345 -41 -115 -41 -120 -22 -120 23 0 77 51
113 107 38 59 41 73 15 73 -10 0 -21 3 -25 6 -11 11 65 94 92 100 14 3 43 25
63 48 35 38 38 40 54 24 16 -16 15 -19 -23 -62 -22 -25 -74 -103 -115 -173
-93 -158 -124 -193 -170 -193 -32 0 -36 -4 -66 -66 -18 -37 -32 -68 -30 -70
11 -10 93 43 158 101 79 71 135 105 171 105 20 0 18 -4 -17 -35 l-39 -36 71
35 c40 19 74 32 78 29 3 -3 15 2 25 11 22 20 41 14 41 -14 0 -24 -56 -72 -290
-250 -220 -167 -242 -187 -220 -201 12 -7 -1 -24 -61 -81 -72 -68 -78 -78
-102 -153 -31 -98 -47 -173 -47 -225 l0 -40 70 50 69 49 56 -11 c42 -8 55 -15
55 -28 0 -14 -12 -20 -52 -25 -127 -17 -235 -73 -270 -138 -15 -29 -28 -87
-18 -87 12 0 60 39 130 105 36 34 79 69 97 78 59 31 113 18 113 -26 0 -16 -3
-17 -15 -7 -12 10 -23 8 -60 -10 -25 -12 -45 -26 -45 -31 0 -13 44 -11 58 3 9
9 12 9 12 -3 -1 -8 -44 -35 -101 -63 -118 -57 -229 -153 -229 -197 0 -36 34
-66 55 -49 19 16 19 30 0 30 -10 0 -3 11 18 30 19 16 37 30 41 30 8 0 36 -56
36 -73 0 -7 -33 -36 -72 -64 -100 -69 -175 -150 -184 -198 -13 -69 35 -86 252
-92 l162 -5 118 238 c65 132 120 243 122 248 3 5 -11 0 -30 -12 -20 -12 -42
-22 -49 -22 -8 0 -22 -12 -32 -28 l-18 -27 6 30 c16 74 85 142 135 132 24 -5
31 -1 52 31 14 20 37 48 51 62 l26 25 -32 26 c-31 26 -31 27 -14 47 10 11 57
41 105 68 48 27 105 63 128 80 28 22 46 29 55 23 8 -5 25 -9 39 -9 18 0 -2
-15 -72 -56 -80 -45 -98 -60 -98 -79 0 -12 7 -26 16 -29 21 -8 189 -8 197 0 3
4 1 16 -5 27 -10 20 -9 20 58 12 134 -15 125 -18 165 58 38 72 74 116 86 103
4 -4 2 -16 -5 -26 -16 -26 -15 -30 7 -30 10 0 41 16 67 35 71 50 123 77 145
73 15 -2 -3 -22 -78 -85 -54 -45 -118 -102 -143 -127 l-44 -46 64 0 c97 0 137
24 225 135 70 88 118 135 136 135 12 0 -7 -55 -39 -115 -39 -72 -25 -63 120
74 l117 112 101 -3 101 -3 -96 -65 -97 -64 -19 24 c-18 24 -19 24 -19 4 0 -35
-73 -89 -265 -200 l-50 -28 40 -8 c62 -11 70 -10 100 14 19 15 39 21 62 19 23
-2 50 7 89 29 30 18 57 30 60 27 3 -2 -25 -37 -61 -76 -36 -39 -65 -75 -65
-79 0 -5 11 -19 24 -31 20 -18 31 -22 57 -16 l32 7 -7 -43 c-4 -24 -14 -51
-22 -61 -14 -15 -14 -20 2 -47 22 -36 32 -38 68 -10 14 11 27 19 27 17 1 -2 3
-14 5 -28 5 -39 15 -94 19 -108 3 -8 25 0 67 26 35 21 94 55 132 76 60 34 70
36 83 23 13 -12 10 -18 -26 -49 -22 -19 -86 -58 -141 -87 -55 -29 -100 -58
-100 -64 1 -31 17 -39 66 -32 l49 7 -34 -29 c-19 -15 -41 -33 -48 -38 -11 -9
-11 -13 0 -28 12 -17 18 -16 107 27 101 49 129 54 206 32 27 -8 60 -16 74 -18
22 -4 20 -5 -15 -16 -22 -6 -98 -21 -170 -32 -187 -30 -181 -28 -163 -46 13
-13 26 -13 101 -3 77 12 95 11 159 -5 40 -10 125 -20 189 -23 128 -6 148 1
110 41 -15 16 -28 55 -42 122 -22 109 -37 140 -77 155 -23 9 -29 7 -44 -11
-10 -12 -18 -33 -18 -45 0 -42 -25 -55 -103 -54 -40 1 -85 4 -102 8 -29 6 -25
9 68 60 67 36 101 61 107 77 6 14 17 27 25 30 19 8 45 56 45 84 0 19 -3 19
-55 -11 -31 -17 -58 -29 -61 -27 -2 3 7 29 21 59 45 98 32 150 -92 370 -84
147 -232 524 -258 657 -4 17 -10 32 -15 32 -5 0 -32 -27 -62 -61 -29 -33 -70
-73 -92 -87 -46 -31 -57 -52 -27 -52 12 0 21 -6 21 -15 0 -16 -208 -174 -385
-292 -113 -75 -133 -84 -305 -141 -8 -3 46 36 120 86 186 125 188 126 173 151
-7 12 -13 32 -13 46 0 25 0 25 -37 10 -20 -9 -52 -28 -71 -43 -109 -86 -145
-112 -160 -112 -10 0 15 32 63 80 44 44 74 80 67 80 -7 0 -47 -23 -89 -51 -41
-28 -101 -63 -132 -77 -31 -14 -85 -51 -121 -82 -115 -100 -153 -118 -179 -86
-10 12 2 29 66 92 98 97 148 131 167 115 10 -9 18 -3 38 26 14 21 45 59 70 85
l44 48 -35 6 c-82 16 -180 -34 -294 -147 -42 -42 -80 -73 -83 -68 -10 17 -24
9 -49 -31 -14 -22 -32 -40 -40 -40 -13 0 -35 55 -35 88 0 8 43 58 95 112 52
54 95 105 95 113 0 8 26 26 59 41 58 26 60 26 310 26 158 0 251 4 251 10 0 5
-23 67 -51 137 -28 71 -66 173 -85 228 -35 108 -74 199 -96 228 -12 17 -16 13
-48 -42 -18 -34 -42 -63 -52 -67 -12 -3 -18 -15 -18 -33 0 -96 -90 -310 -170
-402 -47 -56 -71 -64 -105 -37 -33 25 -29 37 57 212 61 125 77 166 63 166 -2
0 -27 -9 -55 -20 -48 -19 -50 -19 -50 -1 0 24 18 39 75 59 39 15 55 30 110
107 35 50 88 137 117 194 29 57 58 106 66 109 24 9 63 -43 86 -114 18 -56 27
-70 45 -72 20 -3 23 -8 18 -37 -4 -23 -1 -38 9 -46 13 -10 25 -3 72 43 31 30
91 78 133 107 81 55 105 86 94 121 -6 20 -9 19 -41 -19 -44 -51 -180 -121
-234 -121 -64 0 -60 25 25 154 30 46 67 92 82 101 16 10 56 45 91 78 55 54 62
64 62 99 0 36 -2 39 -22 33 -13 -4 -43 -20 -67 -36 -77 -50 -78 -32 -1 40 l73
69 -6 58 c-3 33 -36 151 -74 263 l-68 204 -60 14 c-33 8 -96 16 -140 18 l-80
5 -115 -117z m410 -160 c0 -26 -78 -94 -242 -210 -86 -61 -204 -156 -272 -221
-126 -118 -225 -192 -257 -192 -22 0 -22 -2 -8 41 25 73 142 168 409 330 201
122 271 189 199 189 -24 0 -24 12 1 41 16 19 21 21 29 10 7 -11 18 -10 62 7
67 26 79 27 79 5z m60 -155 c0 -10 -13 -32 -29 -50 -24 -27 -32 -31 -42 -20
-7 6 -26 12 -41 12 -21 0 -28 5 -28 19 0 20 8 24 68 36 18 4 38 15 45 26 12
20 27 8 27 -23z m-37 -123 c1 -5 -98 -61 -220 -123 -123 -62 -223 -111 -223
-108 0 15 136 153 180 183 48 32 53 33 69 19 25 -23 48 -20 111 14 55 29 79
34 83 15z m-193 -258 c0 -2 -51 -49 -112 -103 -157 -139 -321 -251 -351 -241
-16 5 132 151 223 220 101 75 240 147 240 124z m-411 -511 c-2 -2 -40 -29 -84
-61 -120 -86 -217 -130 -175 -80 20 24 141 111 194 139 33 18 53 23 60 16 5
-5 8 -11 5 -14z m-272 -568 c-8 -19 -41 -56 -77 -85 -36 -28 -72 -65 -80 -81
-9 -17 -39 -49 -66 -72 -27 -23 -51 -44 -54 -47 -2 -2 9 1 25 7 48 18 127 67
163 99 17 16 32 25 32 19 0 -24 -99 -105 -185 -152 -50 -27 -102 -60 -117 -74
-23 -21 -30 -23 -43 -12 -8 7 -15 18 -15 24 0 7 74 89 165 183 124 129 170
170 184 166 13 -3 25 5 40 26 29 41 45 40 28 -1z m1278 -33 c-16 -14 -57 -38
-90 -55 -65 -33 -83 -26 -44 17 38 41 81 63 124 63 l40 0 -30 -25z m40 -72
c-106 -98 -171 -143 -205 -143 -17 0 -30 4 -28 9 5 13 145 120 207 158 83 50
94 40 26 -24z m121 -78 c-27 -35 -59 -50 -93 -43 -27 5 -27 35 0 53 23 14 107
35 116 29 2 -2 -8 -19 -23 -39z m37 -198 c-121 -95 -175 -129 -186 -118 -12
12 20 54 37 48 6 -2 23 15 38 37 15 23 51 60 79 83 51 40 53 41 81 27 l29 -15
-78 -62z m-1503 -5 c0 -26 -34 -54 -107 -91 -69 -34 -84 -37 -113 -19 -15 10
-27 10 -49 1 -24 -9 -28 -8 -24 3 5 14 94 84 130 103 18 9 20 8 16 -9 -6 -23
-8 -23 56 -9 27 6 55 17 62 25 16 19 29 18 29 -4z m1488 -106 c-55 -51 -140
-96 -177 -95 l-26 0 24 17 c27 19 213 122 221 121 3 0 -16 -19 -42 -43z m98
-3 c-29 -56 -162 -165 -192 -157 -13 3 -22 -2 -29 -18 -12 -27 -45 -37 -45
-14 0 37 114 135 225 195 52 28 58 27 41 -6z m-1596 -65 c0 -9 -101 -98 -155
-137 -25 -18 -45 -28 -45 -24 0 5 31 39 70 77 38 37 73 78 76 90 5 21 8 22 30
12 13 -6 24 -14 24 -18z m1690 -48 c0 -21 -14 -41 -61 -85 -69 -63 -136 -111
-145 -102 -3 3 9 25 27 49 19 24 35 44 36 46 1 2 11 -1 22 -8 20 -10 21 -8 21
30 0 22 -2 40 -4 40 -1 0 -34 -20 -72 -45 -63 -41 -130 -72 -194 -89 l-25 -7
23 18 c39 30 355 192 364 187 4 -3 8 -18 8 -34z m34 -153 c-7 -18 -55 -51 -91
-62 -17 -5 -23 -2 -23 9 0 13 109 79 118 71 1 -1 0 -9 -4 -18z m-2024 -47
c-43 -38 -80 -51 -80 -30 0 13 89 70 109 70 10 0 -2 -16 -29 -40z m79 -88
c-35 -72 -81 -123 -141 -153 -36 -18 -42 -19 -55 -6 -22 21 -10 46 49 104 46
45 166 128 174 120 2 -1 -11 -31 -27 -65z m-238 -297 c-34 -73 -70 -115 -100
-115 -65 0 -17 99 84 172 22 16 41 24 43 18 2 -5 -10 -39 -27 -75z"/>
<path d="M2460 3918 c-24 -11 -97 -57 -257 -162 -80 -53 -128 -102 -150 -153
-20 -49 -7 -57 40 -24 54 37 122 71 141 71 8 0 27 20 42 45 23 40 30 45 63 45
31 0 44 8 82 48 84 89 91 99 84 121 -7 24 -10 24 -45 9z"/>
<path d="M2874 3288 c-91 -95 -136 -159 -121 -174 3 -4 39 14 79 40 40 25 97
55 126 67 39 16 51 26 47 38 -3 8 -9 36 -12 61 -3 25 -9 51 -13 58 -4 9 -38
-20 -106 -90z"/>
<path d="M2938 3055 c-60 -44 -118 -91 -130 -104 l-23 -23 35 6 c99 20 100 20
100 -2 0 -29 -15 -36 -93 -43 -86 -8 -96 -17 -72 -64 15 -27 17 -37 7 -47 -9
-9 -19 -5 -47 22 -34 33 -35 34 -35 9 1 -34 33 -100 64 -128 l26 -25 48 45
c26 25 98 89 160 143 61 54 112 102 112 107 0 13 -42 11 -89 -6 -36 -12 -41
-12 -41 0 0 28 38 55 76 55 l36 0 -7 58 c-4 31 -10 62 -13 67 -4 6 -52 -23
-114 -70z"/>
<path d="M3060 2883 c-90 -68 -251 -245 -237 -260 4 -3 38 6 77 21 75 28 100
32 100 17 0 -11 -169 -111 -187 -111 -23 0 -14 -36 17 -65 23 -22 30 -38 30
-67 l0 -38 58 21 c97 35 256 117 300 155 45 38 55 76 25 92 -28 15 -52 0 -138
-86 -83 -82 -158 -131 -171 -111 -11 19 186 205 252 239 16 8 31 16 33 17 12
8 -26 33 -50 33 -35 0 -35 3 -8 46 22 37 20 57 -12 98 -26 33 -45 33 -89 -1z"/>
<path d="M3140 2466 c-213 -91 -304 -166 -325 -263 -5 -25 -3 -33 8 -33 32 0
139 65 189 114 29 29 65 56 79 59 24 6 84 69 123 130 23 34 19 33 -74 -7z"/>
<path d="M1845 2392 c-154 -80 -267 -173 -242 -199 13 -12 268 150 304 195 20
23 34 44 32 46 -2 3 -45 -17 -94 -42z"/>
</g>
</svg>
